<svg xmlns="http://www.w3.org/2000/svg"
     viewBox="300 420 240 240"
     width="240"
     height="240">
  <style>
    .s0 { fill: #fefefe; }
  </style>

  <!-- C -->
  <path class="s0"
    d="m419.66 497.66c-0.59-14.3-6.63-27.66-16.99-37.63-11.12-10.69-26-16.24-41.46-15.42-13.6 0.72-26.44 6.48-36.17 16.21-9.72 9.72-15.48 22.57-16.2 36.17-0.82 15.38 4.56 29.99 15.15 41.16 10 10.55 23.47 16.69 37.9 17.29l0.8 0.03v-20.69l-0.72-0.05c-8.91-0.58-17.16-4.52-23.24-11.07-6.67-7.18-9.93-16.53-9.2-26.32 1.28-16.99 15.05-30.76 32.04-32.03q1.33-0.1 2.67-0.1c18.29 0 33.55 14.29 34.72 32.54l0.05 0.72h20.69z"/>

  <!-- Plus -->
  <path class="s0" d="m406.77 555.47h-15.71v-28.64h28.64v15.71h-12.93z"/>
  <path class="s0" d="m406.77 542.93h-28.64v-15.71h12.93v-13.34h15.71z"/>
</svg>