<?xml version="1.0"?>
<svg xmlns="http://www.w3.org/2000/svg" viewBox="0 0 64 64" width="512" height="512"><g id="outline"><path d="M44,14H20a3,3,0,0,0-3,3V47a3,3,0,0,0,3,3H44a3,3,0,0,0,3-3V17A3,3,0,0,0,44,14Zm1,33a1,1,0,0,1-1,1H20a1,1,0,0,1-1-1V35h4.465l1.7,2.555a1,1,0,0,0,.733.44A.831.831,0,0,0,26,38a1,1,0,0,0,.707-.293L30,34.414l2.293,2.293a1,1,0,0,0,1.564-.192l2.187-3.645,1.124,1.685A1,1,0,0,0,38,35h7Zm0-14H38.535l-1.7-2.555A.95.95,0,0,0,35.976,30a1,1,0,0,0-.833.485l-2.342,3.9-2.094-2.094a1,1,0,0,0-1.414,0L26.155,35.43l-1.323-1.985A1,1,0,0,0,24,33H19V17a1,1,0,0,1,1-1H44a1,1,0,0,1,1,1Z"/><path d="M46.651,10.066,42.9,2.553A1,1,0,0,0,42,2H22a1,1,0,0,0-.895.553l-3.756,7.513A4.991,4.991,0,0,0,13,15V49a4.991,4.991,0,0,0,4.349,4.934l3.756,7.513A1,1,0,0,0,22,62H42a1,1,0,0,0,.9-.553l3.756-7.513A4.991,4.991,0,0,0,51,49V15A4.991,4.991,0,0,0,46.651,10.066ZM20.618,8H25V6H21.618l1-2H41.382l3,6H19.618ZM41.382,60H22.618l-3-6H44.382ZM49,49a3,3,0,0,1-3,3H18a3,3,0,0,1-3-3V15a3,3,0,0,1,3-3H46a3,3,0,0,1,3,3Z"/><rect x="27" y="6" width="2" height="2"/><rect x="38" y="56" width="2" height="2"/><path d="M10,27l-.781-.625a9.026,9.026,0,0,0,0,11.25l1.562-1.25c-3.438-4.3-.14-8.573,0-8.753Z"/><path d="M6,25l-.814-.581c-.054.076-5.353,7.668,0,15.162l1.628-1.162C2.3,32.1,6.628,25.843,6.815,25.58Z"/><path d="M54.559,37.625a9.026,9.026,0,0,0,0-11.25L53,27.625c.143.178,3.461,4.425,0,8.75Z"/><path d="M58.592,39.581c5.353-7.494.054-15.086,0-15.162L56.963,25.58c.186.263,4.513,6.523,0,12.839Z"/><path d="M28,18.756a4.828,4.828,0,0,0-5.674.5,4.542,4.542,0,0,0,.049,6.52L28,30.281l5.674-4.542a4.549,4.549,0,0,0,0-6.478A4.827,4.827,0,0,0,28,18.756Zm4.375,5.463L28,27.72l-4.326-3.459a2.557,2.557,0,0,1,0-3.522,2.8,2.8,0,0,1,3.652,0l.674.614.674-.614a2.8,2.8,0,0,1,3.652,0,2.571,2.571,0,0,1,.049,3.48Z"/><path d="M26,40H22a1,1,0,0,0-1,1v4a1,1,0,0,0,1,1h4a1,1,0,0,0,1-1V41A1,1,0,0,0,26,40Zm-1,4H23V42h2Z"/><rect x="29" y="44" width="10" height="2"/><rect x="29" y="40" width="8" height="2"/><rect x="41" y="44" width="2" height="2"/><rect x="38" y="19" width="4" height="2"/><rect x="38" y="23" width="4" height="2"/></g></svg>
