<svg clip-rule="evenodd" fill-rule="evenodd" height="512" image-rendering="optimizeQuality" shape-rendering="geometricPrecision" text-rendering="geometricPrecision" viewBox="0 0 43.3492 43.3492" width="512" xmlns="http://www.w3.org/2000/svg"><g id="Layer_x0020_1"><g id="_212014600"><path fill="currentColor" id="_212015272" d="m12.4547 9.3531c-.1586 0-.3126-.0789-.4023-.2228-.1378-.2219-.071-.5137.1509-.6519 1.5214-.948 1.5301-3.375 1.5379-5.5163.0021-.5671.004-1.1026.0345-1.5865.0503-.7843.6547-1.3756 1.4049-1.3756h10.7157c.7502 0 1.3544.5914 1.4047 1.3756.0336.5287.0365 1.0928.0385 1.6898.0088 2.0944.0177 4.4683 1.533 5.4129.222.1381.2898.4301.1518.652-.139.2217-.4308.2896-.6526.1512-1.9579-1.2214-1.9688-3.8728-1.9787-6.2123-.0018-.5824-.0049-1.1324-.0364-1.6328-.0158-.2375-.1825-.4899-.4605-.4899h-10.7154c-.2779 0-.4447.2524-.4605.4899-.0284.4553-.0306.9769-.0325 1.5292-.0088 2.2683-.0188 5.0913-1.9836 6.3159-.0779.0485-.1647.0717-.2494.0716zm13.4416 33.9961h-10.7156c-.7502 0-1.3547-.5912-1.405-1.3754-.0324-.5094-.0295-1.0736-.0276-1.6711.0101-2.0978.0207-4.4753-1.4758-5.4082-.2217-.1382-.2899-.4301-.1509-.6519.1381-.2217.4299-.2895.6517-.1513 1.9442 1.2122 1.9323 3.9865 1.9215 6.2157-.0019.5806-.005 1.1293.0256 1.6061.016.2372.1824.4898.4604.4898h10.7157c.2779 0 .4444-.2523.4603-.4897.0315-.4887.0256-1.0518.0206-1.6482-.0215-2.2078-.0473-4.9552 1.887-6.1609.2219-.1386.5137-.0705.6517.1513.138.2216.071.5136-.1509.6519-1.4837.9246-1.461 3.275-1.4413 5.3488.0049.6143.0108 1.1945-.0227 1.7177-.0503.784-.6546 1.3756-1.4047 1.3754z"/><path fill="currentColor" id="_212015392" d="m14.2253 9.0565c-2.7506 0-4.9885 2.2377-4.9885 4.9882v15.2598c0 2.7506 2.2379 4.9883 4.9885 4.9883l12.6261-.0002c2.7507 0 4.9886-2.2374 4.9886-4.9879v-15.2601c0-2.7506-2.238-4.988-4.9886-4.988zm12.6261 26.1827h-12.6261c-3.273 0-5.935-2.6621-5.935-5.9345l.0001-15.2601c0-3.2723 2.6618-5.9345 5.9349-5.9345l12.6261-.0001c3.2722 0 5.935 2.6624 5.935 5.9347l.0001 15.2598c0 3.2726-2.6629 5.9349-5.9351 5.9347z"/><path fill="currentColor" id="_212015752" d="m14.2273 11.7736c-1.2886 0-2.3366 1.0481-2.3366 2.3362l.0002 15.1297c0 1.2881 1.0478 2.3362 2.3364 2.3362l12.6213-.0002c1.2885 0 2.3364-1.0477 2.3364-2.3358v-15.13c0-1.2882-1.048-2.336-2.3365-2.336zm12.6213 20.7484h-12.6213c-1.8101 0-3.283-1.4723-3.283-3.2823v-15.13c0-1.8101 1.4729-3.2825 3.283-3.2825l12.6213-.0001c1.81 0 3.2829 1.4726 3.2829 3.2827v15.1297c0 1.8101-1.473 3.2827-3.2829 3.2825z"/><path fill="currentColor" id="_212015080" d="m33.5654 20.8584h-1.2531c-.2613 0-.4733-.2119-.4733-.4733.0001-.2614.212-.4731.4732-.4731l1.2532-.0001c.3017 0 .5471-.2457.5471-.5478l.0001-3.3807c0-.3019-.2456-.5476-.5473-.5476l-1.253-.0001c-.2613 0-.4733-.2118-.4733-.4731.0001-.2616.212-.4732.4732-.4732l1.2532-.0002c.8232 0 1.4935.6705 1.4935 1.4944v3.3804c0 .8241-.6704 1.4945-1.4935 1.4944z"/><path fill="currentColor" id="_212014672" d="m33.5654 28.86h-1.2531c-.2613 0-.4733-.2118-.4733-.4732.0001-.2615.212-.4732.4732-.4732l1.2532-.0001c.3017 0 .5471-.2457.5471-.5478l.0001-3.3805c0-.3021-.2456-.5478-.5473-.5478l-1.253-.0001c-.2613 0-.4733-.2117-.4733-.473.0001-.2615.212-.4733.4732-.4733l1.2532-.0002c.8232 0 1.4935.6706 1.4935 1.4946v3.3802c0 .824-.6704 1.4944-1.4935 1.4944z"/></g></g></svg>