<?xml version="1.0" encoding="iso-8859-1"?>
<!-- Generator: Adobe Illustrator 19.0.0, SVG Export Plug-In . SVG Version: 6.00 Build 0)  -->
<svg version="1.1" id="Capa_1" xmlns="http://www.w3.org/2000/svg" xmlns:xlink="http://www.w3.org/1999/xlink" x="0px" y="0px"
	 viewBox="0 0 474.136 474.136" style="enable-background:new 0 0 474.136 474.136;" xml:space="preserve">
<g>
	<g>
		<path fill="currentColor" d="M206.78,172.536l-5.712-5.824l-5.712,5.824c-4.688,4.8-114.288,117.208-114.288,181.6c0,66.274,53.726,120,120,120
			s120-53.726,120-120C321.068,289.744,211.468,177.336,206.78,172.536z M201.068,458.136c-57.41-0.066-103.934-46.59-104-104
			c0-50.136,81.464-140.392,104-164.408c22.536,24,104,114.24,104,164.408C305.002,411.546,258.478,458.07,201.068,458.136z"/>
	</g>
</g>
<g>
	<g>
		<path fill="currentColor" d="M137.068,354.136h-16c0.044,39.746,32.254,71.956,72,72v-16C162.156,410.096,137.108,385.047,137.068,354.136z"/>
	</g>
</g>
<g>
	<g>
		<path fill="currentColor" d="M327.236,28.6l-6.168-7.344l-6.144,7.352c-10.976,13.168-65.856,80.352-65.856,109.528c0,39.764,32.236,72,72,72
			c39.765,0,72-32.236,72-72C393.068,115.448,357.596,64.952,327.236,28.6z M321.068,194.136c-30.911-0.04-55.96-25.089-56-56
			c0-11.712,19.2-46.568,56-91.832c36.416,44.8,56,80.368,56,91.832C377.028,169.048,351.979,194.096,321.068,194.136z"/>
	</g>
</g>
<g>
	<g>
		<path fill="currentColor" d="M216.78,65.328c-2.184-8.472-13.312-29.24-33.232-56.504L177.068,0l-6.464,8.8c-17.928,24.536-31.016,46.68-33.312,56.536
			l-0.24,1.024v1.048c0.591,21.642,18.367,38.845,40.016,38.728c21.555,0.094,39.278-16.969,40-38.512v-1.168L216.78,65.328z
			 M177.068,90.136c-12.486-0.094-22.851-9.672-23.928-22.112c6.38-14.453,14.409-28.12,23.928-40.728
			c9.501,12.711,17.52,26.464,23.904,40.992C199.902,80.681,189.507,90.182,177.068,90.136z"/>
	</g>
</g>
<g>
</g>
<g>
</g>
<g>
</g>
<g>
</g>
<g>
</g>
<g>
</g>
<g>
</g>
<g>
</g>
<g>
</g>
<g>
</g>
<g>
</g>
<g>
</g>
<g>
</g>
<g>
</g>
<g>
</g>
</svg>
