<?xml version="1.0" encoding="iso-8859-1"?>
<!-- Generator: Adobe Illustrator 19.0.0, SVG Export Plug-In . SVG Version: 6.00 Build 0)  -->
<svg version="1.1" id="Layer_1" xmlns="http://www.w3.org/2000/svg" xmlns:xlink="http://www.w3.org/1999/xlink" x="0px" y="0px"
	 viewBox="0 0 512 512" style="enable-background:new 0 0 512 512;" xml:space="preserve">
<g>
	<g>
		<path fill="currentColor" d="M494.14,100.019h-79.777c-9.864,0-17.86,7.997-17.86,17.86v358.4h-42.865V242.903c0-9.864-7.997-17.86-17.86-17.86H256
			c-9.864,0-17.86,7.997-17.86,17.86v233.377h-44.056V369.117c0-9.864-7.997-17.86-17.86-17.86H96.447
			c-9.864,0-17.86,7.997-17.86,17.86v107.163H35.721V18.33c0-9.168-6.717-17.211-15.829-18.218C9.119-1.076,0,7.328,0,17.861V494.14
			C0,504.004,7.997,512,17.861,512H494.14c9.864,0,17.861-7.997,17.861-17.86v-376.26C512,108.016,504.003,100.019,494.14,100.019z
			 M159.554,476.279h-44.056v-89.302h44.056V476.279z M317.916,476.279h-44.056V260.763h44.056V476.279z M476.279,476.279h-44.056
			V135.74h44.056V476.279z"/>
	</g>
</g>
<g>
</g>
<g>
</g>
<g>
</g>
<g>
</g>
<g>
</g>
<g>
</g>
<g>
</g>
<g>
</g>
<g>
</g>
<g>
</g>
<g>
</g>
<g>
</g>
<g>
</g>
<g>
</g>
<g>
</g>
</svg>
