<svg id="Layer_1" enable-background="new 0 0 512 512" viewBox="0 0 512 512" xmlns="http://www.w3.org/2000/svg"><path fill="currentColor" d="m472.29 226.13h-34.68v-5.89c0-20.91-15.05-38.06-35.79-40.76-44.35-5.79-78.41-9.5-109.55-11.15v-7.48c0-9.37-7.63-17-17-17h-3.27v-40.35c15.2-6.3 25.92-21.29 25.92-38.75 0-23.12-18.81-41.93-41.93-41.93s-41.93 18.81-41.93 41.93c0 17.45 10.72 32.44 25.92 38.75v40.35h-3.27c-9.37 0-17 7.63-17 17v7.48c-31.14 1.65-65.2 5.36-109.55 11.15-20.74 2.7-35.79 19.85-35.79 40.76v5.89h-34.66c-15.83 0-28.71 12.88-28.71 28.71v66.52c0 15.83 12.88 28.71 28.71 28.71h34.68v32.95c0 20.91 15.05 38.06 35.79 40.76 10.08 1.31 19.08 2.45 27.5 3.47v51.91c0 3.85 2.15 7.3 5.61 8.99 1.41.69 2.91 1.02 4.4 1.02 2.18 0 4.33-.72 6.14-2.13l65.33-50.96c1.03-.8 2.01-1.11 3.32-1.05 57.25 2.8 105.31-1.6 179.34-11.25 20.74-2.7 35.79-19.85 35.79-40.76v-32.95h34.68c15.83 0 28.71-12.88 28.71-28.71v-66.52c0-15.83-12.88-28.71-28.71-28.71zm-248.22-161.37c0-17.61 14.32-31.93 31.93-31.93s31.93 14.32 31.93 31.93-14.32 31.93-31.93 31.93-31.93-14.33-31.93-31.93zm25.92 41.49c1.96.28 3.97.44 6.01.44s4.05-.15 6.01-.44v37.6h-12.02zm-20.27 54.6c0-3.86 3.14-7 7-7h38.55c3.86 0 7 3.14 7 7v7.02c-17.76-.7-34.8-.7-52.55 0zm-190.01 179.22c-10.31 0-18.71-8.39-18.71-18.71v-66.52c0-10.31 8.39-18.71 18.71-18.71h34.68v103.93h-34.68zm387.9 42.95c0 15.83-11.39 28.8-27.09 30.85-73.44 9.58-121.06 13.94-177.56 11.18-3.69-.18-7.04.88-9.96 3.15l-65.33 50.96v-51.91c0-5.05-3.78-9.32-8.8-9.93-8.4-1.02-17.36-2.15-27.42-3.46-15.69-2.05-27.08-15.02-27.08-30.85v-162.76c0-15.83 11.39-28.8 27.08-30.85 61.46-8.02 103-12.03 144.53-12.03 41.54 0 83.07 4.01 144.53 12.03 15.69 2.05 27.08 15.02 27.08 30.85v162.77zm63.39-61.66c0 10.31-8.39 18.71-18.71 18.71h-34.68v-103.94h34.68c10.31 0 18.71 8.39 18.71 18.71zm-148.27 24.89v19.08c0 9.39-7.64 17.03-17.03 17.03h-139.4c-9.39 0-17.04-7.64-17.04-17.03v-19.08c0-2.76 2.24-5 5-5s5 2.24 5 5v19.08c0 3.88 3.16 7.03 7.04 7.03h139.4c3.88 0 7.03-3.16 7.03-7.03v-19.08c0-2.76 2.24-5 5-5s5 2.24 5 5zm-136.58-82.81c0-17.59-14.31-31.89-31.89-31.89s-31.89 14.31-31.89 31.89 14.31 31.89 31.89 31.89 31.89-14.31 31.89-31.89zm-53.79 0c0-12.07 9.82-21.89 21.89-21.89s21.89 9.82 21.89 21.89-9.82 21.89-21.89 21.89-21.89-9.82-21.89-21.89zm185.37-31.9c-17.59 0-31.9 14.31-31.9 31.9s14.31 31.9 31.9 31.9 31.9-14.31 31.9-31.9-14.31-31.9-31.9-31.9zm0 53.8c-12.08 0-21.9-9.82-21.9-21.9s9.82-21.9 21.9-21.9 21.9 9.82 21.9 21.9c0 12.07-9.82 21.9-21.9 21.9z"/></svg>