<svg height="512" viewBox="0 0 64 64" width="512" xmlns="http://www.w3.org/2000/svg"><g id="Image"><g><path d="m62 1h-60c-.552 0-1 .447-1 1v60c0 .553.448 1 1 1h60c.552 0 1-.447 1-1v-60c0-.553-.448-1-1-1zm-1 60h-58v-58h58z"/><path d="m56 55c-.552 0-1 .447-1 1v2c0 .553.448 1 1 1s1-.447 1-1v-2c0-.553-.448-1-1-1z"/><path d="m6 59c.552 0 1-.447 1-1v-4c0-.553-.448-1-1-1s-1 .447-1 1v4c0 .553.448 1 1 1z"/><path d="m11 55c-.552 0-1 .447-1 1v2c0 .553.448 1 1 1s1-.447 1-1v-2c0-.553-.448-1-1-1z"/><path d="m16 55c-.552 0-1 .447-1 1v2c0 .553.448 1 1 1s1-.447 1-1v-2c0-.553-.448-1-1-1z"/><path d="m21 55c-.552 0-1 .447-1 1v2c0 .553.448 1 1 1s1-.447 1-1v-2c0-.553-.448-1-1-1z"/><path d="m26 53c-.552 0-1 .447-1 1v4c0 .553.448 1 1 1s1-.447 1-1v-4c0-.553-.448-1-1-1z"/><path d="m31 55c-.552 0-1 .447-1 1v2c0 .553.448 1 1 1s1-.447 1-1v-2c0-.553-.448-1-1-1z"/><path d="m36 55c-.552 0-1 .447-1 1v2c0 .553.448 1 1 1s1-.447 1-1v-2c0-.553-.448-1-1-1z"/><path d="m41 55c-.552 0-1 .447-1 1v2c0 .553.448 1 1 1s1-.447 1-1v-2c0-.553-.448-1-1-1z"/><path d="m46 53c-.552 0-1 .447-1 1v4c0 .553.448 1 1 1s1-.447 1-1v-4c0-.553-.448-1-1-1z"/><path d="m51 55c-.552 0-1 .447-1 1v2c0 .553.448 1 1 1s1-.447 1-1v-2c0-.553-.448-1-1-1z"/><path d="m58 16h-2c-.552 0-1 .447-1 1s.448 1 1 1h2c.552 0 1-.447 1-1s-.448-1-1-1z"/><path d="m58 46h-2c-.552 0-1 .447-1 1s.448 1 1 1h2c.552 0 1-.447 1-1s-.448-1-1-1z"/><path d="m58 41h-2c-.552 0-1 .447-1 1s.448 1 1 1h2c.552 0 1-.447 1-1s-.448-1-1-1z"/><path d="m58 36h-2c-.552 0-1 .447-1 1s.448 1 1 1h2c.552 0 1-.447 1-1s-.448-1-1-1z"/><path d="m58 31h-4c-.552 0-1 .447-1 1s.448 1 1 1h4c.552 0 1-.447 1-1s-.448-1-1-1z"/><path d="m58 26h-2c-.552 0-1 .447-1 1s.448 1 1 1h2c.552 0 1-.447 1-1s-.448-1-1-1z"/><path d="m58 21h-2c-.552 0-1 .447-1 1s.448 1 1 1h2c.552 0 1-.447 1-1s-.448-1-1-1z"/><path d="m18 50c2.517 0 4.193-.266 5.813-.522 8.467-1.339 9.586.522 16.187.522 5.428 0 13-3.805 13-10 0-4.305-1.808-7.515-3.168-9.555-1.099-1.645-2.719-11.445-10.832-11.445-3.576 0-5.519 1.807-7.081 3.258-2.489 2.315-3.288 2.371-5.838 0-1.562-1.451-3.505-3.258-7.081-3.258-6.485 0-8.808 6.245-10.056 9.601-1.242 3.336-3.944 5.677-3.944 11.399 0 6.195 7.572 10 13 10zm-8.168-18.445c1.405-2.106 2.531-10.555 9.168-10.555 2.79 0 4.279 1.385 5.719 2.723 3.299 3.069 5.261 3.07 8.562 0 1.44-1.338 2.929-2.723 5.719-2.723 6.631 0 7.77 8.459 9.168 10.555 1.216 1.823 2.832 4.683 2.832 8.445 0 4.884-6.515 8-11 8-6.2 0-7.868-1.866-16.5-.498-1.615.256-3.141.498-5.5.498-4.485 0-11-3.116-11-8 0-3.762 1.616-6.622 2.832-8.445z"/><path d="m30 41c0 3.317 2.019 5 6 5 3.942 0 7-4.838 7-9 0-5.41-4.815-9-8-9-3.449 0-5 2.339-5 4 0 2.461 1.863 3.643.594 6.158-.337.667-.594 1.3-.594 2.842zm2-9c0-.627.755-2 3-2 2.06 0 6 2.726 6 7 0 3.468-2.523 7-5 7-3.32 0-4-1.199-4-3 0-1.188.167-1.521.379-1.94 1.655-3.282-.379-5.412-.379-7.06z"/><path d="m22 46c3.981 0 6-1.683 6-5 0-3.421-1.846-3.221-.609-6.414.285-.738.609-1.574.609-2.586 0-1.661-1.551-4-5-4-3.185 0-8 3.59-8 9 0 4.162 3.058 9 7 9zm1-16c2.245 0 3 1.373 3 2 0 .638-.23 1.233-.475 1.864-1.486 3.844.475 4.599.475 7.136 0 1.801-.68 3-4 3-2.477 0-5-3.532-5-7 0-4.274 3.94-7 6-7z"/><path d="m6 7h12c.552 0 1-.447 1-1s-.448-1-1-1h-12c-.552 0-1 .447-1 1s.448 1 1 1z"/><path d="m46.168 7h12c.552 0 1-.447 1-1s-.448-1-1-1h-12c-.552 0-1 .447-1 1s.448 1 1 1z"/><path d="m6 12h6c.552 0 1-.447 1-1s-.448-1-1-1h-6c-.552 0-1 .447-1 1s.448 1 1 1z"/><path d="m36 12h6c.552 0 1-.447 1-1s-.448-1-1-1h-6c-.552 0-1 .447-1 1s.448 1 1 1z"/><path d="m26 12h6c.552 0 1-.447 1-1s-.448-1-1-1h-6c-.552 0-1 .447-1 1s.448 1 1 1z"/><path d="m46 12h12c.552 0 1-.447 1-1s-.448-1-1-1h-12c-.552 0-1 .447-1 1s.448 1 1 1z"/><path d="m6 17h6c.552 0 1-.447 1-1s-.448-1-1-1h-6c-.552 0-1 .447-1 1s.448 1 1 1z"/></g></g></svg>