<svg fill="none" height="64" viewBox="0 0 64 64" width="64" xmlns="http://www.w3.org/2000/svg"><path fill="currentColor" clip-rule="evenodd" d="m2 10c0-4.41828 3.58172-8 8-8h8c1.1046 0 2 .89543 2 2s-.8954 2-2 2h-8c-2.20914 0-4 1.79086-4 4v8c0 1.1046-.89543 2-2 2s-2-.8954-2-2zm42-6c0-1.10457.8954-2 2-2h8c4.4183 0 8 3.58172 8 8v8c0 1.1046-.8954 2-2 2s-2-.8954-2-2v-8c0-2.20914-1.7909-4-4-4h-8c-1.1046 0-2-.89543-2-2zm-40 40c1.10457 0 2 .8954 2 2v8c0 2.2091 1.79086 4 4 4h8c1.1046 0 2 .8954 2 2s-.8954 2-2 2h-8c-4.41828 0-8-3.5817-8-8v-8c0-1.1046.89543-2 2-2zm56 0c1.1046 0 2 .8954 2 2v8c0 4.4183-3.5817 8-8 8h-8c-1.1046 0-2-.8954-2-2s.8954-2 2-2h8c2.2091 0 4-1.7909 4-4v-8c0-1.1046.8954-2 2-2z" fill-rule="evenodd"/></svg>