<svg id="Layer_1" enable-background="new 0 0 100 100" viewBox="0 0 100 100" xmlns="http://www.w3.org/2000/svg"><path fill="currentColor" d="m82.2039642 78.8106461c.614151 5.1505432-.7274933 10.3440018-3.7594376 14.5526352-2.4552994 2.7192917-5.9788132 4.2262039-9.6411209 4.1232529h-.1819077c-2.7453766.1573715-5.386776-1.0722504-7.0337753-3.274353-3.9413337-5.3965989-.7879028-15.4621812-.4240836-16.5536271.3452225-1.3339615 1.5973358-2.2283325 2.9711647-2.122261l15.1589966.6063614c1.491661.0587615 2.722351 1.1870345 2.9101638 2.6679916zm-42.3845634-32.2583504c1.4636459-.3836937 2.4371529-1.7670937 2.3041687-3.2743454-.2460823-4.8728714.2237968-9.7554893 1.3946266-14.4920044 2.2304039-7.1237278.8991852-14.8854055-3.5775261-20.8587837-3.2800255-3.8899412-8.282011-5.8907366-13.3399181-5.335969-4.4810848.4886005-8.4751244 3.0465791-10.7932053 6.9125032-4.4936466 7.5018501-5.4052238 16.61763-2.4860764 24.8607597 2.018898 5.1946526 4.6661472 10.1226158 7.882679 14.6739159.5859718.7874985 1.5046005 1.2580185 2.4860744 1.2733536.2268028-.0108719.4511776-.0516434.6673012-.121273zm1.4552612 2.4860763-14.6739101 3.9413376c-1.4333496.3781128-2.3826084 1.7378616-2.2435303 3.2137032.5690842 5.1369476 3.0078926 9.8850784 6.8518677 13.33992 2.0949421 1.5238647 4.6252842 2.3318787 7.2156849 2.3041687 1.0611229-.0046921 2.1184692-.1267014 3.152771-.3638153 2.7775459-.425972 5.150795-2.2287216 6.3061409-4.7902451 2.667984-6.1242409-2.6073494-15.2196388-3.2137032-16.2504501-.6877022-1.1774521-2.0785065-1.7487946-3.3953209-1.3947983zm38.9889488-17.6450767c-3.1158371-3.2703476-7.5750732-4.9061451-12.0665588-4.4264278-5.0484276.6161728-9.4702377 3.6774273-11.8240204 8.1858578-3.0498695 6.8001862-2.643734 14.6520996 1.0914497 21.1013336 2.2075691 4.3726845 3.7408218 9.0542145 4.547699 13.885643.241642 1.500412 1.5128365 2.6190643 3.0318031 2.667984l15.8262939.1819h.0603333c1.2245789-.0040436 2.3258438-.7462006 2.7892532-1.879715 2.142189-5.1288071 3.6293793-10.5071526 4.4264297-16.0079079 1.058548-8.6849136-1.8346329-17.3866577-7.8827438-23.7087288z"/></svg>