<svg id="Layer_1" enable-background="new 0 0 512 512" viewBox="0 0 512 512" xmlns="http://www.w3.org/2000/svg"><path d="m505.378 430.416v65.594c0 8.838-7.164 16.002-16.001 16.002s-16.001-7.164-16.001-16.002v-65.594c0-25.124-7.517-48.66-21.167-66.273-12.714-16.406-29.162-25.441-46.313-25.441h-42.52c-8.837 0-16.001-7.165-16.001-16.002 0-8.838 7.164-16.002 16.001-16.002h42.52c54.854-.001 99.482 55.499 99.482 123.718zm-177.406-209.637c-8.837 0-16.001 7.164-16.001 16.002s7.164 16.002 16.001 16.002c69.703 0 126.411-56.695 126.411-126.383 0-69.704-56.708-126.412-126.411-126.412-8.837 0-16.001 7.164-16.001 16.002s7.164 16.002 16.001 16.002c52.057 0 94.408 42.352 94.408 94.408-.001 52.041-42.352 94.379-94.408 94.379zm-270.326-94.379c0-69.704 56.695-126.412 126.383-126.412 69.703 0 126.411 56.708 126.411 126.412 0 69.688-56.708 126.383-126.411 126.383-69.689 0-126.383-56.695-126.383-126.383zm32.002 0c0 52.041 42.339 94.379 94.38 94.379 52.057 0 94.408-42.338 94.408-94.379 0-52.057-42.351-94.408-94.408-94.408-52.041 0-94.38 42.352-94.38 94.408zm172.305 180.297h-155.906c-54.823 0-99.425 55.462-99.425 123.634v65.679c0 8.837 7.164 16.002 16.001 16.002s16.001-7.165 16.001-16.002v-65.679c0-25.093 7.514-48.606 21.158-66.208 12.708-16.394 29.138-25.422 46.264-25.422h155.905c17.151 0 33.598 9.035 46.313 25.441 13.649 17.613 21.167 41.149 21.167 66.273v65.594c0 8.837 7.164 16.002 16.001 16.002s16.001-7.165 16.001-16.002v-65.594c.002-68.218-44.626-123.718-99.48-123.718z"/></svg>