<svg fill="none" height="512" viewBox="0 0 512 512" width="512" xmlns="http://www.w3.org/2000/svg" xmlns:xlink="http://www.w3.org/1999/xlink"><clipPath id="clip0_260_8279"><path d="m0 0h512v512h-512z"/></clipPath><g clip-path="url(#clip0_260_8279)"><path clip-rule="evenodd" d="m332.368 285.686c20.284-29.384 32.162-65.015 32.162-103.421 0-100.6621-81.603-182.265-182.265-182.265-100.6621 0-182.265 81.6029-182.265 182.265 0 100.662 81.6029 182.265 182.265 182.265 36.856 0 71.158-10.939 99.834-29.748l33.77 33.77-11.494 11.494 116.959 116.959c19.994 19.994 52.411 19.994 72.405 0s19.994-52.411 0-72.405l-116.959-116.959-11.228 11.228zm-150.103 50.844c85.198 0 154.265-69.067 154.265-154.265 0-85.1982-69.067-154.265-154.265-154.265-85.1982 0-154.265 69.0668-154.265 154.265 0 85.198 69.0668 154.265 154.265 154.265z" fill="#000" fill-rule="evenodd"/></g></svg>