<?xml version="1.0" encoding="iso-8859-1"?>
<!-- Generator: Adobe Illustrator 19.0.0, SVG Export Plug-In . SVG Version: 6.00 Build 0)  -->
<svg version="1.1" id="Capa_1" xmlns="http://www.w3.org/2000/svg" xmlns:xlink="http://www.w3.org/1999/xlink" x="0px" y="0px"
	 viewBox="0 0 512 512" style="enable-background:new 0 0 512 512;" xml:space="preserve">
<g>
	<g>
		<g>
			<path d="M275.292,0C72.896,0,42.667,100.25,42.667,160c0,71.26,50.313,95.49,94.708,116.875
				c25.875,12.458,50.313,24.229,65.042,43.927c12.188,16.323,21.271,42.698,30.875,70.625C252.75,447.948,274.792,512,333.208,512
				c94.271,0,136.125-222.917,136.125-307.646C469.333,106.073,395.146,0,275.292,0z M333.208,490.667
				c-43.208,0-61.771-53.979-79.729-106.177c-10.167-29.552-19.771-57.469-33.979-76.458
				c-17.833-23.885-45.813-37.354-72.875-50.385C102.292,236.302,64,217.854,64,160C64,45.396,178.896,21.333,275.292,21.333
				c106.688,0,172.708,95,172.708,183.021C448,302.365,399.521,490.667,333.208,490.667z"/>
			<path d="M417.417,262.771c-3.021-2.375-7.042-3-10.625-1.542c-39.292,15.792-160.25,16.104-161.479,16.104
				c-4.063,0-7.771,2.313-9.563,5.958c-1.792,3.646-1.354,8,1.125,11.219c15.625,20.271,25.583,48.448,36.125,78.281l2.021,5.729
				c18.271,51.354,34.167,90.646,60.25,90.656c37.125-6.448,73.833-118.208,86.042-196.406
				C421.896,268.979,420.417,265.167,417.417,262.771z M333.521,448c-7.625-0.635-20.542-26.427-38.458-76.833l-1.958-5.49
				c-8.188-23.219-16.625-47.042-28.167-67.271c31.688-0.677,94.146-3.146,132.417-12.125
				C380.271,378.479,345.583,445.74,333.521,448z"/>
			<path d="M426.667,202.667c0-66.438-46.875-160-151.063-160C85.333,42.667,85.333,130.979,85.333,160
				c0,20.313,13.063,49.625,75.354,73.938c17,6.635,62.563,22.063,118.167,22.063C330.521,256,426.667,256,426.667,202.667z
				 M106.667,160c0-23.74,0-96,168.938-96c89.479,0,129.729,81.083,129.729,138.667c0,32-91.896,32-126.479,32
				c-51.979,0-94.542-14.406-110.417-20.604C128.604,198.51,106.667,179.313,106.667,160z"/>
			<path d="M213.333,106.667c-23.521,0-42.667,19.135-42.667,42.667S189.813,192,213.333,192C236.854,192,256,172.865,256,149.333
				S236.854,106.667,213.333,106.667z M213.333,170.667c-11.771,0-21.333-9.573-21.333-21.333c0-11.76,9.563-21.333,21.333-21.333
				c11.771,0,21.333,9.573,21.333,21.333C234.667,161.094,225.104,170.667,213.333,170.667z"/>
		</g>
	</g>
</g>
<g>
</g>
<g>
</g>
<g>
</g>
<g>
</g>
<g>
</g>
<g>
</g>
<g>
</g>
<g>
</g>
<g>
</g>
<g>
</g>
<g>
</g>
<g>
</g>
<g>
</g>
<g>
</g>
<g>
</g>
</svg>
