<svg enable-background="new 0 0 32 32" viewBox="0 0 32 32" xmlns="http://www.w3.org/2000/svg"><g id="Layer_25"><g><g><g><path d="m9 28c-2.206 0-4-1.794-4-4v-24h8v24c.001 2.207-1.793 4-4 4zm-2-26v22c0 1.103.897 2 2 2s2-.897 2-2v-22z"/></g></g><g><g><path d="m4 0h10v2h-10z"/></g></g><g><g><path d="m22.999 28c-2.206 0-4-1.794-4-4v-24h8v24c0 2.207-1.794 4-4 4zm-2-26v22c0 1.103.897 2 2 2s2-.897 2-2v-22z"/></g></g><g><g><path d="m17.999 0h10v2h-10z"/></g></g><g><g><path d="m29 32h-26c-1.654 0-3-1.346-3-3v-19h3v2h-1v17c0 .552.449 1 1 1h26c.552 0 1-.448 1-1v-17h-1v-2h3v19c0 1.655-1.346 3-3 3z"/></g></g><g><g><path d="m15 10h2v2h-2z"/></g></g><g><g><path d="m6 16h6.001v2h-6.001z"/></g></g><g><g><path d="m20.008 3.994h6.001v2h-6.001z"/></g></g></g></g><g id="Layer_1"/></svg>