<svg id="Capa_1" enable-background="new 0 0 512 512" viewBox="0 0 512 512" xmlns="http://www.w3.org/2000/svg"><g><g><path d="m424.5 0c-4.142 0-7.5 3.357-7.5 7.5s3.358 7.5 7.5 7.5c39.977 0 72.5 32.523 72.5 72.5v337c0 39.977-32.523 72.5-72.5 72.5h-337c-39.977 0-72.5-32.523-72.5-72.5v-337c0-39.977 32.523-72.5 72.5-72.5h302c4.142 0 7.5-3.357 7.5-7.5s-3.358-7.5-7.5-7.5h-302c-48.248 0-87.5 39.252-87.5 87.5v337c0 48.248 39.252 87.5 87.5 87.5h337c48.248 0 87.5-39.252 87.5-87.5v-337c0-48.248-39.252-87.5-87.5-87.5z"/><path d="m141.099 377.141c5.932 5.933 13.156 10.09 21.134 12.204 4.314 19.625 21.937 34.155 42.479 34.155.173 0 .35-.001.523-.004 13.788-.165 26.345-6.834 34.357-17.818 4.782 2.93 10.4 4.622 16.408 4.622s11.626-1.692 16.408-4.622c8.012 10.984 20.569 17.654 34.357 17.818.174.003.349.004.522.004 20.542 0 38.166-14.532 42.48-34.155 7.978-2.113 15.202-6.271 21.133-12.203 7.563-7.563 12.248-17.294 13.465-27.796 16.87-8.627 27.526-25.842 27.526-45.089 0-.298-.003-.595-.008-.891-.132-7.596 1.695-15.174 5.283-21.915.025-.046.045-.095.07-.142.243-.461.484-.923.715-1.393.073-.149.132-.301.195-.452 3.495-7.283 5.354-15.341 5.354-23.464s-1.859-16.181-5.354-23.464c-.062-.151-.121-.303-.195-.452-.231-.47-.472-.932-.715-1.393-.025-.047-.045-.095-.07-.142-3.587-6.741-5.415-14.319-5.283-21.915.005-.296.008-.593.008-.891 0-19.247-10.656-36.462-27.526-45.089-1.217-10.502-5.902-20.232-13.465-27.795-5.932-5.933-13.156-10.09-21.134-12.204-4.313-19.624-21.935-34.155-42.476-34.155-.174 0-.35.001-.525.004-13.811.165-26.356 6.827-34.363 17.815-4.781-2.928-10.397-4.618-16.402-4.618s-11.621 1.691-16.402 4.618c-8.006-10.988-20.551-17.649-34.362-17.815-.176-.003-.35-.004-.525-.004-20.54 0-38.164 14.532-42.478 34.155-7.978 2.113-15.202 6.271-21.133 12.203-7.563 7.563-12.248 17.294-13.465 27.796-16.87 8.627-27.526 25.842-27.526 45.089 0 .298.003.595.008.891.132 7.596-1.695 15.174-5.283 21.915-.025.046-.045.095-.07.142-.243.461-.484.923-.715 1.393-.073.149-.132.301-.195.452-3.495 7.283-5.354 15.341-5.354 23.464s1.859 16.181 5.354 23.464c.062.151.121.303.195.452.231.47.472.932.715 1.393.025.047.045.095.07.142 3.587 6.741 5.415 14.319 5.283 21.915-.005.296-.008.593-.008.891 0 19.247 10.656 36.462 27.526 45.089 1.217 10.502 5.901 20.232 13.464 27.795zm165.846-273.639c.115-.001.229-.002.344-.002 11.776 0 22.082 7.291 26.366 17.724-10.994.892-21.325 5.613-29.348 13.636-2.929 2.929-2.929 7.678 0 10.606 1.464 1.464 3.384 2.196 5.303 2.196s3.839-.732 5.303-2.197c7.19-7.189 17.101-10.501 27.19-9.08 6.935.976 13.225 4.115 18.189 9.081 5.94 5.939 9.274 13.844 9.386 22.256.041 3.033 1.905 5.743 4.723 6.866 13.661 5.444 22.488 18.459 22.488 33.155 0 .21-.002.421-.006.631-.005.287 0 .574-.001.862-8.19-4.844-17.678-7.522-27.671-7.522-11.322 0-22.174 3.452-31.381 9.984-3.378 2.396-4.174 7.078-1.778 10.457 2.396 3.378 7.078 4.174 10.457 1.777 6.657-4.723 14.507-7.219 22.702-7.219 14.654 0 27.822 7.941 34.677 20.817.011.021.023.044.035.066.002.004.005.009.007.013 3.03 5.7 4.567 11.887 4.567 18.389s-1.537 12.689-4.567 18.389c-.002.004-.005.009-.007.013-.012.022-.023.045-.035.066-6.855 12.876-20.023 20.817-34.677 20.817-8.195 0-16.045-2.496-22.702-7.219-3.377-2.396-8.059-1.601-10.457 1.777-2.396 3.379-1.601 8.061 1.778 10.457 9.207 6.532 20.059 9.984 31.381 9.984 9.992 0 19.481-2.678 27.671-7.522.001.287-.004.574.001.862.004.21.006.421.006.631 0 14.696-8.827 27.711-22.488 33.155-2.818 1.123-4.682 3.833-4.723 6.866-.112 8.412-3.446 16.316-9.387 22.257-4.964 4.965-11.254 8.104-18.189 9.08-10.087 1.42-20-1.89-27.19-9.08-2.928-2.93-7.677-2.929-10.606-.001-2.929 2.929-2.929 7.678 0 10.606 8.023 8.025 18.354 12.743 29.349 13.634-4.284 10.434-14.59 17.726-26.369 17.726-.113 0-.229-.001-.343-.002-9.805-.118-18.676-5.315-23.806-13.733 2.767-4.685 4.362-10.141 4.362-15.965v-245.596c0-5.824-1.595-11.281-4.362-15.967 5.127-8.421 13.986-13.613 23.808-13.731zm-191.837 200.755c0-.21.002-.421.006-.631.005-.287 0-.574.001-.862 8.19 4.844 17.678 7.522 27.671 7.522 11.322 0 22.174-3.452 31.381-9.984 3.378-2.396 4.174-7.078 1.778-10.457-2.397-3.379-7.079-4.175-10.457-1.777-6.657 4.723-14.507 7.219-22.702 7.219-14.654 0-27.822-7.941-34.677-20.817-.011-.021-.023-.044-.035-.066-.002-.004-.005-.009-.007-.013-3.03-5.7-4.567-11.887-4.567-18.389s1.537-12.689 4.567-18.389c.002-.004.005-.009.007-.013.012-.022.023-.045.035-.066 6.855-12.876 20.023-20.817 34.677-20.817 8.195 0 16.045 2.496 22.702 7.219 3.377 2.396 8.06 1.6 10.457-1.777 2.396-3.379 1.601-8.061-1.778-10.457-9.207-6.532-20.059-9.984-31.381-9.984-9.992 0-19.481 2.678-27.671 7.522-.001-.287.004-.574-.001-.862-.004-.21-.006-.421-.006-.631 0-14.696 8.827-27.711 22.488-33.155 2.818-1.123 4.682-3.833 4.723-6.866.112-8.412 3.446-16.316 9.387-22.257 4.964-4.965 11.254-8.104 18.189-9.08 10.088-1.419 20 1.89 27.19 9.08 1.464 1.465 3.384 2.197 5.303 2.197s3.839-.732 5.303-2.196c2.929-2.929 2.929-7.678 0-10.606-8.022-8.024-18.351-12.744-29.346-13.635 4.332-10.53 14.808-17.851 26.709-17.722 9.821.118 18.68 5.31 23.807 13.732-2.767 4.686-4.362 10.142-4.362 15.967v182.476c0 4.143 3.358 7.5 7.5 7.5s7.5-3.357 7.5-7.5v-182.482c0-9.098 7.402-16.5 16.5-16.5s16.5 7.402 16.5 16.5v245.6c0 9.098-7.402 16.5-16.5 16.5s-16.5-7.402-16.5-16.5v-28.124c0-4.143-3.358-7.5-7.5-7.5s-7.5 3.357-7.5 7.5v28.124c0 5.824 1.595 11.28 4.362 15.965-5.13 8.418-14.001 13.615-23.806 13.733-11.905.113-22.378-7.199-26.709-17.724 10.994-.892 21.324-5.611 29.346-13.634 2.929-2.929 2.929-7.678 0-10.606s-7.678-2.929-10.606.001c-7.19 7.19-17.101 10.497-27.19 9.08-6.935-.976-13.225-4.115-18.189-9.081-5.94-5.939-9.274-13.844-9.386-22.256-.041-3.033-1.905-5.743-4.723-6.866-13.662-5.444-22.49-18.459-22.49-33.155z"/><path d="m404.5 75h40c4.142 0 7.5-3.357 7.5-7.5s-3.358-7.5-7.5-7.5h-40c-4.142 0-7.5 3.357-7.5 7.5s3.358 7.5 7.5 7.5z"/><path d="m444.5 90h-40c-4.142 0-7.5 3.357-7.5 7.5s3.358 7.5 7.5 7.5h40c4.142 0 7.5-3.357 7.5-7.5s-3.358-7.5-7.5-7.5z"/><path d="m67.5 75h80c4.142 0 7.5-3.357 7.5-7.5s-3.358-7.5-7.5-7.5h-80c-4.142 0-7.5 3.357-7.5 7.5s3.358 7.5 7.5 7.5z"/><path d="m67.5 105h40c4.142 0 7.5-3.357 7.5-7.5s-3.358-7.5-7.5-7.5h-40c-4.142 0-7.5 3.357-7.5 7.5s3.358 7.5 7.5 7.5z"/><path d="m364.5 452h80c4.142 0 7.5-3.357 7.5-7.5s-3.358-7.5-7.5-7.5h-80c-4.142 0-7.5 3.357-7.5 7.5s3.358 7.5 7.5 7.5z"/><path d="m444.5 407h-40c-4.142 0-7.5 3.357-7.5 7.5s3.358 7.5 7.5 7.5h40c4.142 0 7.5-3.357 7.5-7.5s-3.358-7.5-7.5-7.5z"/><path d="m107.5 437h-40c-4.142 0-7.5 3.357-7.5 7.5s3.358 7.5 7.5 7.5h40c4.142 0 7.5-3.357 7.5-7.5s-3.358-7.5-7.5-7.5z"/><path d="m107.5 407h-40c-4.142 0-7.5 3.357-7.5 7.5s3.358 7.5 7.5 7.5h40c4.142 0 7.5-3.357 7.5-7.5s-3.358-7.5-7.5-7.5z"/></g></g><g/><g/><g/><g/><g/><g/><g/><g/><g/><g/><g/><g/><g/><g/><g/></svg>