<?xml version="1.0"?>
<svg xmlns="http://www.w3.org/2000/svg" id="shield_protection_protect_safety_security_defense_guard_emblem_secure_privacy_care" viewBox="0 0 32 32"><path fill="currentColor" d="M12.39,28.48C6.6,25.54,3,19.64,3,13.07V6.92c0-1.18,.98-2.06,2.07-2,3.51,.11,6.88-.76,9.86-2.61,.66-.41,1.47-.41,2.13,0,2.92,1.82,6.27,2.73,9.86,2.61,1.1-.04,2.07,.83,2.07,2.01v6.14c0,6.57-3.6,12.47-9.39,15.41-4.17,2.11-3.05,2.11-7.22,0ZM5,6.92h0v6.15c0,5.81,3.18,11.04,8.3,13.63l2.71,1.37,2.7-1.37c5.12-2.6,8.3-7.82,8.3-13.63V6.93c-3.96,.13-7.75-.91-10.99-2.93-3.42,2.1-7.18,3.06-11.01,2.91Z"/></svg>
