<svg id="Layer_1" enable-background="new 0 0 100 100" viewBox="0 0 100 100" xmlns="http://www.w3.org/2000/svg"><g><path fill="currentColor" d="m69.9787674 54.0751953-11.1580353 5.4438133c-6.2550964 3.033432-11.1110306 8.3714714-13.5448799 14.885273l-6.3256416 16.8017807c-.2234001.5995102-.6937332 1.0698471-1.2933159 1.3049469-1.1523018.4234009-2.4456215-.15271-2.8806496-1.3049469l-6.3138714-16.8017807c-2.4456196-6.502037-7.2897816-11.8047638-13.5448809-14.8383369l-11.1580343-5.4319039c-.4467978-.2234726-.8112833-.587883-1.0346823-1.0348244-.5408795-1.1169243-.0705433-2.445549 1.0346823-2.9863586l11.1580343-5.432045c6.2668676-3.0335732 11.1110296-8.3714676 13.5448809-14.885273l6.3256397-16.8016396c.2234001-.4587107.5995827-.8348932 1.0581512-1.0583639 1.1523018-.5643463 2.5396996-.0938663 3.1158142 1.0583639l6.3256416 16.7664757c2.422081 6.5254326 7.2780151 11.8516998 13.5331116 14.8969002l11.1580353 5.4202766c.7759781.3761826 1.2580795 1.1639977 1.2580795 2.0224304-.0117644.8465196-.4938735 1.610653-1.2580794 1.9752122z"/><path fill="currentColor" d="m96.7858429 23.8251038-4.1202621 2.0102177c-2.2098999 1.0716572-3.920578 2.948782-4.7858887 5.2451763l-2.3297119 6.2103081c-.1331329.3394814-.3993607.6057472-.7388382.7321777-.6523056.2463646-1.377861-.0797882-1.6241379-.7321777l-2.3363724-6.2103081c-.8586502-2.2963943-2.5759888-4.1735191-4.7858887-5.2451763l-4.1202621-2.0102177c-.2529449-.1198502-.4592896-.3261528-.5790939-.5790958-.3061676-.6323185-.0466003-1.3845654.5790939-1.6907291l4.1202621-2.0102196c2.2098999-1.0715752 3.9272385-2.9487 4.7858887-5.2517576l2.3363724-6.2037277c.1264648-.2661872.3394775-.4725718.5990829-.6056657.6523056-.31949 1.4377441-.0466399 1.7638931.6056657l2.3297119 6.2037277c.8653107 2.3030577 2.5759888 4.1801825 4.7858887 5.2517576l4.1202621 2.0102196c.2529373.1198483.4592819.3261528.5857544.5791759.3062058.6256541.0466004 1.3844833-.5857543 1.690649z"/></g></svg>