<?xml version="1.0" encoding="UTF-8"?>
<svg xmlns="http://www.w3.org/2000/svg" id="Layer_1" data-name="Layer 1" viewBox="0 0 64 64" width="512" height="512"><path d="M22.23,59.46a3.55,3.55,0,0,0,7.06.47L31.87,41h.26l2.58,18.92A3.55,3.55,0,0,0,38.22,63a3.55,3.55,0,0,0,3.54-3.86l-1-11.23-2,.18,1,11.23A1.54,1.54,0,0,1,38.22,61a1.55,1.55,0,0,1-1-.39,1.52,1.52,0,0,1-.51-.94L34,39.87A1,1,0,0,0,33,39H31a1,1,0,0,0-1,.87l-2.7,19.8a1.55,1.55,0,0,1-3.08-.21.82.82,0,0,1,0-.14l.23-2.61a4,4,0,1,0-2,.23l-.19,2.16A2.17,2.17,0,0,0,22.23,59.46ZM21,53a2,2,0,1,1,2,2A2,2,0,0,1,21,53Z"/><path d="M21.52,33.94,24,28V38.91l-.69,8,2,.18L26,39V23a1,1,0,0,0-1.92-.38l-4.4,10.56a1.34,1.34,0,0,1-2.57-.51,1.31,1.31,0,0,1,.1-.5l2.72-6.81-1.86-.74-2.73,6.83a3.56,3.56,0,0,0-.23,1.22,3.33,3.33,0,0,0,6.41,1.27Z"/><path d="M39,8a7,7,0,1,0-10.59,6H27.06a6.92,6.92,0,0,0-4.68,1.81A4,4,0,0,0,20,15a4,4,0,1,0,4,4,3.9,3.9,0,0,0-.36-1.64A5,5,0,0,1,27.06,16h9.88a5,5,0,0,1,4.64,3.14l.9,2.23,1.85-.74-.89-2.23a7,7,0,0,0-6.5-4.4H35.59A7,7,0,0,0,39,8ZM20,21a2,2,0,1,1,2-2A2,2,0,0,1,20,21Zm12-8a5,5,0,1,1,5-5A5,5,0,0,1,32,13Z"/><path d="M8.4,21.2l1.2,1.6,4-3a1,1,0,0,0,0-1.6l-4-3L8.4,16.8,10,18H1v2h9Z"/><path d="M47,22a4,4,0,0,0-1.15,7.81l.94,2.36a1.33,1.33,0,0,1-2.47,1l-4.4-10.55A1,1,0,0,0,38,23V38.56A4,4,0,1,0,40,38V28l2.48,5.94a3.33,3.33,0,0,0,5.83.6,3.34,3.34,0,0,0,.34-3.11L48,29.85A4,4,0,0,0,47,22ZM42,42a2,2,0,1,1-2-2A2,2,0,0,1,42,42Zm5-14a2,2,0,1,1,2-2A2,2,0,0,1,47,28Z"/><path d="M58.6,23.8l-1.2-1.6-4,3a1,1,0,0,0,0,1.6l4,3,1.2-1.6L57,27h6V25H57Z"/><path d="M50.4,38.2l-4,3a1,1,0,0,0,0,1.6l4,3,1.2-1.6L50,43h7V41H50l1.6-1.2Z"/><path d="M12.6,56.8l4-3a1,1,0,0,0,0-1.6l-4-3-1.2,1.6L13,52H6v2h7l-1.6,1.2Z"/></svg>
