<svg id="Capa_1" enable-background="new 0 0 512 512" height="512" viewBox="0 0 512 512" width="512" xmlns="http://www.w3.org/2000/svg"><path d="m432.296 265.38c-29.608 0-54.911 18.761-64.66 45.017h-25.268c-49.119 0-89.08 39.961-89.08 89.08v30.871c0 19.769-16.083 35.851-35.851 35.851s-35.851-16.083-35.851-35.851v-108.894c22.061-4.088 42.573-13.987 59.663-28.852 18.913-16.451 32.352-37.898 38.867-62.022l5.021-18.594c2.611-9.667-1.405-19.583-9.256-24.918l29.149-107.942c3.695-13.68.872-27.977-7.743-39.227s-21.682-17.702-35.851-17.702h-10.465c-3.333-12.755-14.953-22.197-28.738-22.197-16.377 0-29.7 13.324-29.7 29.7s13.324 29.7 29.7 29.7c13.812 0 25.451-9.477 28.759-22.269h10.444c9.483 0 18.228 4.318 23.994 11.847s7.654 17.098 5.182 26.253l-29.151 107.95c-3.425.232-6.78 1.217-9.844 2.979-5.303 3.048-9.102 7.979-10.696 13.885l-1.833 6.788c-1.075 3.982 1.281 8.081 5.262 9.156 3.982 1.074 8.081-1.281 9.155-5.263l1.833-6.788c.555-2.055 1.877-3.77 3.721-4.83 1.844-1.059 3.988-1.338 6.046-.783 4.239 1.145 6.758 5.526 5.613 9.766l-5.021 18.594c-11.701 43.327-48.031 75.117-92.556 80.988-3.714.49-6.491 3.656-6.491 7.403v115.27c0 28.004 22.782 50.786 50.786 50.786s50.786-22.782 50.786-50.786v-30.871c0-40.884 33.261-74.145 74.145-74.145h21.585c-.386 2.947-.606 5.946-.606 8.997 0 2.34.12 4.653.349 6.934h-21.327c-32.1 0-58.215 26.115-58.215 58.214v30.871c0 36.788-29.929 66.717-66.717 66.717s-66.717-29.929-66.717-66.717v-12.935c0-4.124-3.343-7.467-7.467-7.467s-7.467 3.343-7.467 7.467v12.935c0 45.023 36.628 81.651 81.651 81.651s81.652-36.629 81.652-81.651v-30.871c0-23.864 19.415-43.279 43.28-43.279h24.554c9.167 27.328 34.998 47.081 65.374 47.081 38.019 0 68.949-30.93 68.949-68.949s-30.93-68.948-68.949-68.948zm-210.063-220.914c-8.142 0-14.766-6.624-14.766-14.766s6.623-14.766 14.766-14.766 14.766 6.624 14.766 14.766-6.624 14.766-14.766 14.766zm210.063 343.878c-29.783 0-54.014-24.231-54.014-54.014s24.231-54.014 54.014-54.014 54.014 24.231 54.014 54.014-24.231 54.014-54.014 54.014z"/><path d="m432.296 296.121c-3.788 0-7.534.555-11.13 1.649-3.946 1.2-6.171 5.371-4.971 9.317 1.201 3.946 5.373 6.171 9.318 4.971 2.187-.665 4.469-1.002 6.784-1.002 12.833 0 23.273 10.44 23.273 23.273s-10.441 23.273-23.273 23.273-23.273-10.44-23.273-23.273c0-1.443.132-2.888.394-4.295.755-4.055-1.921-7.953-5.976-8.707-4.048-.758-7.953 1.921-8.706 5.976-.429 2.305-.647 4.669-.647 7.026 0 21.068 17.14 38.208 38.208 38.208s38.208-17.14 38.208-38.208-17.14-38.208-38.209-38.208z"/><path d="m135.786 385.552c0 4.124 3.343 7.467 7.467 7.467s7.467-3.343 7.467-7.467v-70.473c0-3.747-2.777-6.914-6.491-7.403-44.524-5.872-80.854-37.661-92.555-80.988l-5.021-18.594c-.554-2.055-.276-4.201.785-6.046 1.06-1.844 2.775-3.165 4.827-3.72 4.247-1.144 8.624 1.373 9.769 5.612l5.021 18.594c11.156 41.315 48.837 70.17 91.631 70.17 35.225 0 67.37-19.36 83.891-50.526 1.931-3.644.543-8.164-3.101-10.095-3.645-1.932-8.164-.543-10.096 3.1-13.924 26.268-41.012 42.586-70.694 42.586-36.06 0-67.811-24.315-77.214-59.129l-5.021-18.594c-2.609-9.664-11.069-16.211-20.541-16.87l-29.15-107.944c-2.472-9.155-.582-18.724 5.183-26.254 5.765-7.529 14.511-11.847 23.994-11.847h8.102c3.308 12.792 14.947 22.269 28.759 22.269 16.377 0 29.7-13.324 29.7-29.7s-13.324-29.7-29.701-29.7c-13.785 0-25.405 9.442-28.738 22.197h-8.122c-14.17 0-27.237 6.452-35.851 17.702-8.616 11.25-11.437 25.547-7.744 39.227l29.15 107.942c-7.851 5.335-11.867 15.251-9.256 24.918l5.021 18.594c6.515 24.125 19.954 45.571 38.867 62.022 17.089 14.865 37.602 24.764 59.662 28.852zm-42.989-370.617c8.142 0 14.766 6.624 14.766 14.766s-6.623 14.766-14.766 14.766-14.765-6.625-14.765-14.767 6.623-14.765 14.765-14.765z"/></svg>