<svg id="Layer_1" enable-background="new 0 0 500 500" height="512" viewBox="0 0 500 500" width="512" xmlns="http://www.w3.org/2000/svg"><path fill="currentColor" clip-rule="evenodd" d="m282.489 196.807c-3.089 2.241-4.37 6.187-3.196 9.821l15.214 46.806-39.816-28.923c-3.092-2.25-7.25-2.246-10.342 0l-39.815 28.923 15.214-46.806c1.184-3.634-.102-7.58-3.191-9.831l-39.82-28.927h49.213c3.824 0 7.186-2.446 8.364-6.075l15.209-46.811 15.204 46.811c1.184 3.629 4.55 6.075 8.365 6.075h49.218zm63.627-36.668c-1.179-3.634-4.545-6.075-8.36-6.075h-61.016l-18.858-58.03c-2.621-8.071-14.101-8.066-16.724 0l-18.848 58.03h-61.021c-8.474 0-12.015 10.926-5.164 15.901l49.364 35.869-18.858 58.03c-1.849 5.69 2.502 11.511 8.355 11.511 1.812 0 3.624-.56 5.174-1.686l49.364-35.865 49.364 35.865c3.088 2.236 7.239 2.246 10.337-.005 3.089-2.246 4.365-6.192 3.186-9.821l-18.848-58.04 49.354-35.86c3.097-2.239 4.373-6.19 3.199-9.824zm-20.436 237.309c-5.468-3.152-12.466-1.293-15.618 4.18l-18.38 31.826-24.831-92.682c23.535-2.665 45.423-10.854 64.32-23.237l26.34 98.289zm-210.418-204.255c0 74.292 60.447 134.738 134.743 134.738 74.287 0 134.734-60.447 134.734-134.738 0-74.292-60.447-134.734-134.734-134.734-74.297 0-134.743 60.442-134.743 134.734zm93.057 240.261-18.371-31.821c-3.156-5.468-10.161-7.339-15.623-4.194l-31.826 18.385 26.331-98.289c18.907 12.384 40.785 20.573 64.32 23.237zm134.811-124.629c33.77-27.252 55.414-68.952 55.414-115.632 0-81.911-66.633-148.544-148.539-148.544-81.911 0-148.549 66.633-148.549 148.544 0 46.679 21.644 88.38 55.414 115.632l-30.891 115.291c-2.01 7.484 6.082 13.675 12.773 9.807l40.415-23.33 23.34 40.414c3.862 6.691 13.964 5.393 15.969-2.104l28.723-107.194h5.602l28.718 107.194c2.009 7.494 12.11 8.799 15.974 2.104l23.34-40.414 40.414 23.33c6.697 3.87 14.78-2.334 12.783-9.807z" fill-rule="evenodd"/></svg>