<svg id="Layer_1" enable-background="new 0 0 60 60" height="512" viewBox="0 0 60 60" width="512" xmlns="http://www.w3.org/2000/svg"><path fill="currentColor" d="m45.0050049 26.6700439h-30.0099487v18.9599609h30.0099487zm-10.9799805 7.2899781-5.6199951 7.9899902c-.1599731.2200317-.4099731.3500366-.6699829.3500366-.1199951 0-.2399902-.0300293-.3500366-.0800171-.3599854-.1599731-.5499878-.5599976-.4599609-.9500122l1.1999511-4.8699951h-1.4699707c-.2800293 0-.5300293-.1400146-.6900024-.3699951-.1500244-.2199707-.1799927-.5100098-.0800171-.7700195l1.9000244-4.7399902c.1199951-.3099976.4299927-.5100098.7700195-.5100098h2.9599609c.25 0 .5.1100464.6500244.3099976.1599731.2000122.2099609.4700317.1499634.710022l-.3800049 1.5499878 1.4500122.0800171c.2999878.0100098.5700073.1900024.710022.460022.1300049.2699583.0999756.5899657-.0700073.8399657z"/><path fill="currentColor" d="m14.9950562 50.4400024c0 2.5100098 2.039978 4.5599976 4.5599975 4.5599976h20.8899536c2.5100098 0 4.5599976-2.0499878 4.5599976-4.5599976v-2.8129272h-30.0099487z"/><path fill="currentColor" d="m45.0050049 21.8600464c0-2.5100098-2.0499878-4.5599976-4.5599976-4.5599976h-.5799561v-4.3099976h.7799683c1.3599854 0 2.460022-1.1000366 2.460022-2.4500122v-3.0900268c0-1.3499756-1.1000366-2.4500122-2.460022-2.4500122h-21.2999878c-1.3499756 0-2.4500122 1.1000366-2.4500122 2.4500122v3.0900269c0 1.3499756 1.1000366 2.4500122 2.4500122 2.4500122h.789978v4.3099976h-.5799561c-2.5200195 0-4.5599976 2.0499878-4.5599976 4.5599976v2.8099976h30.0099487v-2.8099977z"/></svg>