<svg height="512" viewBox="0 0 28 28" width="512" xmlns="http://www.w3.org/2000/svg"><g id="Layer_2" data-name="Layer 2"><path fill="currentColor" d="m24.945 15.244a6.061 6.061 0 0 0 -1.294-1.911l-4.54-4.54a2 2 0 0 0 -3.378 1.035 1.988 1.988 0 0 0 -2.827 1.414 1.974 1.974 0 0 0 -2.791 1.283l-4.439-4.439a2.048 2.048 0 0 0 -2.828 0 2 2 0 0 0 0 2.828l9.879 9.88a.126.126 0 0 1 .029.145.123.123 0 0 1 -.123.082h-2.253a3.518 3.518 0 0 0 -3.162 1.954 1.482 1.482 0 0 0 1.035 2.117l5.81 1.162a16.443 16.443 0 0 0 2.752.319h.168a6.763 6.763 0 0 0 4.743-2.012l1.764-1.761a6.828 6.828 0 0 0 1.455-7.556zm-2.162 6.847-1.764 1.765a5.7 5.7 0 0 1 -4.176 1.717 15.278 15.278 0 0 1 -2.584-.3l-5.81-1.162a.483.483 0 0 1 -.336-.689 2.521 2.521 0 0 1 2.267-1.4h2.253a1.133 1.133 0 0 0 .8-1.934l-9.88-9.88a1 1 0 0 1 0-1.414 1.023 1.023 0 0 1 1.414 0l5.655 5.654.706.706a.5.5 0 0 0 .707-.707l-.708-.709a1 1 0 0 1 1.415-1.412l1.061 1.06a.5.5 0 0 0 .707-.707l-.354-.353a1 1 0 0 1 1.414-1.415l1.061 1.061a.5.5 0 1 0 .707-.707l-.354-.354a1 1 0 0 1 1.416-1.411l4.54 4.541a5.057 5.057 0 0 1 1.081 1.6 5.831 5.831 0 0 1 -1.238 6.45z"/><path fill="currentColor" d="m8.919 7.494 3.948.646a.562.562 0 0 0 .081.006.5.5 0 0 0 .08-.994l-2.835-.463a9.688 9.688 0 0 1 6.54-1.389 9.824 9.824 0 0 1 5.821 3.018.5.5 0 1 0 .732-.682 10.829 10.829 0 0 0 -6.414-3.326 10.661 10.661 0 0 0 -7.172 1.512l.44-2.689a.5.5 0 0 0 -.988-.161l-.646 3.947a.5.5 0 0 0 .413.575z"/></g></svg>