<svg id="SVGRoot" height="24" viewBox="0 0 24 24" width="24" xmlns="http://www.w3.org/2000/svg" xmlns:xlink="http://www.w3.org/1999/xlink" xmlns:svg="http://www.w3.org/2000/svg"><linearGradient id="linearGradient12568" gradientUnits="userSpaceOnUse" x1="2" x2="22" y1="12" y2="12"><stop id="stop12562" offset="0" stop-color="#2196f3"/><stop id="stop12564" offset="1" stop-color="#673ab7"/></linearGradient><g id="g5665" fill="url(#linearGradient12568)" stroke-linecap="round" stroke-linejoin="round"><path id="path1852" d="m12 2c-5.5169197 0-10 4.4830803-10 10 0 5.51692 4.4830803 10 10 10 5.51692 0 10-4.48308 10-10 0-5.5169197-4.48308-10-10-10zm0 1c4.97648 0 9 4.0235199 9 9 0 4.97648-4.02352 9-9 9-4.9764801 0-9-4.02352-9-9 0-4.9764801 4.0235199-9 9-9z"/><path id="path2570" d="m10.523438 7.0005437a.50005.49999851 0 0 0 -.480469.2968445l-1.8671877 4.2026928h-2.6757813a.5.49994852 0 0 0 -.5.499948.5.49994852 0 0 0 .5.499949h3a.50005.49999851 0 0 0 .4570313-.296845l1.4765627-3.3219235 2.591797 7.7765425a.50005.49999851 0 0 0 .93164.04492l1.867188-4.20269h2.675781a.5.49994852 0 0 0 .5-.499953.5.49994852 0 0 0 -.5-.499948h-3a.50005.49999851 0 0 0 -.457031.296844l-1.476563 3.321924-2.591797-7.7765436a.50005.49999851 0 0 0 -.451171-.3417617z"/></g></svg>